<?xml version="1.0" encoding="UTF-8" standalone="no"?>
<!-- Created with Inkscape (http://www.inkscape.org/) -->

<svg
   xmlns:dc="http://purl.org/dc/elements/1.1/"
   xmlns:cc="http://creativecommons.org/ns#"
   xmlns:rdf="http://www.w3.org/1999/02/22-rdf-syntax-ns#"
   xmlns:svg="http://www.w3.org/2000/svg"
   xmlns="http://www.w3.org/2000/svg"
   xmlns:sodipodi="http://sodipodi.sourceforge.net/DTD/sodipodi-0.dtd"
   xmlns:inkscape="http://www.inkscape.org/namespaces/inkscape"
   width="108.392mm"
   height="9.6730003mm"
   viewBox="0 0 108.392 9.6730004"
   version="1.1"
   id="svg4891"
   inkscape:version="0.92.4 (5da689c313, 2019-01-14)"
   sodipodi:docname="mail.svg">
  <defs
     id="defs4885" />
  <sodipodi:namedview
     id="base"
     pagecolor="#ffffff"
     bordercolor="#666666"
     borderopacity="1.0"
     inkscape:pageopacity="0.0"
     inkscape:pageshadow="2"
     inkscape:zoom="7.9195959"
     inkscape:cx="156.75844"
     inkscape:cy="-2.2226862"
     inkscape:document-units="mm"
     inkscape:current-layer="layer1"
     showgrid="false"
     inkscape:window-width="2558"
     inkscape:window-height="1410"
     inkscape:window-x="0"
     inkscape:window-y="0"
     inkscape:window-maximized="0" />
  <metadata
     id="metadata4888">
    <rdf:RDF>
      <cc:Work
         rdf:about="">
        <dc:format>image/svg+xml</dc:format>
        <dc:type
           rdf:resource="http://purl.org/dc/dcmitype/StillImage" />
        <dc:title></dc:title>
      </cc:Work>
    </rdf:RDF>
  </metadata>
  <g
     inkscape:label="Layer 1"
     inkscape:groupmode="layer"
     id="layer1"
     transform="translate(0,-287.327)">
    <g
       aria-label="sveaimmel@gmail.com"
       transform="matrix(0.26458333,0,0,0.26458333,-25.173325,181.73092)"
       style="font-style:normal;font-weight:normal;font-size:40px;line-height:1.25;font-family:sans-serif;letter-spacing:0px;word-spacing:0px;fill:#000000;fill-opacity:1;stroke:none"
       id="flowRoot4747-9">
      <path
         d="m 102.60336,429.22298 c 4.1,0 7.72,-2.02 8.26,-5.94 0.32,-2.14 -0.38,-4.72 -3.9,-5.72 l -3.78,-1.06 c -2.08,-0.54 -3.04,-1.22 -2.84,-2.6 0.26,-1.9 1.84,-3.4 4.82,-3.4 2.06,0 3.56,0.82 3.56,3.08 l 3.14,0.2 c 0.44,-3.58 -2.08,-6.04 -6.6,-6.04 -4.58,0 -7.720001,2.46 -8.200001,5.96 -0.44,3.2 1.46,4.86 4.520001,5.66 l 3.94,1.04 c 1.74,0.46 2.36,1.26 2.14,2.68 -0.28,2.12 -2.34,3.38 -5.04,3.38 -2.14,0 -4.120001,-0.98 -4.260001,-3.56 l -3.22,-0.2 c -0.04,4.32 3.24,6.52 7.460001,6.52 z"
         style="font-style:italic;font-variant:normal;font-weight:normal;font-stretch:normal;font-family:'Public Sans';-inkscape-font-specification:'Public Sans Italic'"
         id="path4815"
         inkscape:connector-curvature="0" />
      <path
         d="m 120.03273,428.82298 h 3.2 l 10.08,-20.68 h -3.36 l -7.5,16.04 h -0.32 l -2.8,-16.04 h -3.4 z"
         style="font-style:italic;font-variant:normal;font-weight:normal;font-stretch:normal;font-family:'Public Sans';-inkscape-font-specification:'Public Sans Italic'"
         id="path4817"
         inkscape:connector-curvature="0" />
      <path
         d="m 141.92836,429.22298 c 3.82,0 7.62,-2.1 9.14,-6.44 h -3.38 c -1.08,2.36 -2.94,3.58 -5.42,3.58 -3.76,0 -5.2,-3.1 -4.64,-7.02 h 14.02 l 0.2,-1.36 c 0.86,-6.28 -1.66,-10.24 -7.22,-10.24 -5.74,0 -9.66,4.42 -10.54,10.94 -0.9,6.6 2.32,10.54 7.84,10.54 z m -3.94,-12.38 c 0.38,-3.08 2.58,-6.3 6.2,-6.3 3.54,0 4.84,2.74 4.36,6.3 z"
         style="font-style:italic;font-variant:normal;font-weight:normal;font-stretch:normal;font-family:'Public Sans';-inkscape-font-specification:'Public Sans Italic'"
         id="path4819"
         inkscape:connector-curvature="0" />
      <path
         d="m 160.61086,429.22298 c 2.78,0 5.28,-0.94 7.26,-4.16 l -0.24,3.76 h 3.06 l 2.08,-14.44 c 0.58,-4.06 -1.66,-6.64 -6.74,-6.64 -4.74,0 -8.16,2.64 -8.9,6.24 h 3.18 c 0.8,-2.34 2.98,-3.5 5.14,-3.52 2.66,0 4.18,1.48 3.82,4.12 l -0.24,1.62 -3.44,0.1 c -6.74,0.16 -9.94,2.34 -10.58,6.92 -0.52,3.78 1.78,6 5.6,6 z m 1.46,-2.66 c -2.36,0 -3.82,-1.36 -3.52,-3.7 0.46,-3.06 2.88,-4.24 7.3,-4.32 l 2.84,-0.06 -0.52,3.54 c -0.34,2.3 -3.5,4.54 -6.1,4.54 z"
         style="font-style:italic;font-variant:normal;font-weight:normal;font-stretch:normal;font-family:'Public Sans';-inkscape-font-specification:'Public Sans Italic'"
         id="path4821"
         inkscape:connector-curvature="0" />
      <path
         d="m 181.16398,403.88298 h 3.82 l 0.58,-3.84 h -3.82 z m -3.46,24.94 h 3.62 l 2.94,-20.68 h -3.58 z"
         style="font-style:italic;font-variant:normal;font-weight:normal;font-stretch:normal;font-family:'Public Sans';-inkscape-font-specification:'Public Sans Italic'"
         id="path4823"
         inkscape:connector-curvature="0" />
      <path
         d="m 188.33773,428.82298 h 3.6 l 2.06,-14.14 c 0.4,-2.86 2.94,-4.04 4.92,-4.04 1.78,0 3.72,1.22 3.38,3.62 l -2.08,14.56 h 3.56 l 1.98,-13.72 c 0.48,-3.34 2.82,-4.46 5.04,-4.46 2.02,0 3.76,1 3.24,4.7 l -1.94,13.48 h 3.6 l 1.98,-13.8 c 0.86,-5.78 -2.52,-7.28 -5.3,-7.28 -2.42,0 -4.88,1.22 -6.46,3.24 -0.66,-2.2 -3.02,-3.24 -5.14,-3.24 -3.04,0 -5.06,1.5 -6.38,3.28 l 0.4,-2.88 h -3.46 z"
         style="font-style:italic;font-variant:normal;font-weight:normal;font-stretch:normal;font-family:'Public Sans';-inkscape-font-specification:'Public Sans Italic'"
         id="path4825"
         inkscape:connector-curvature="0" />
      <path
         d="m 221.61898,428.82298 h 3.6 l 2.06,-14.14 c 0.4,-2.86 2.94,-4.04 4.92,-4.04 1.78,0 3.72,1.22 3.38,3.62 l -2.08,14.56 h 3.56 l 1.98,-13.72 c 0.48,-3.34 2.82,-4.46 5.04,-4.46 2.02,0 3.76,1 3.24,4.7 l -1.94,13.48 h 3.6 l 1.98,-13.8 c 0.86,-5.78 -2.52,-7.28 -5.3,-7.28 -2.42,0 -4.88,1.22 -6.46,3.24 -0.66,-2.2 -3.02,-3.24 -5.14,-3.24 -3.04,0 -5.06,1.5 -6.38,3.28 l 0.4,-2.88 h -3.46 z"
         style="font-style:italic;font-variant:normal;font-weight:normal;font-stretch:normal;font-family:'Public Sans';-inkscape-font-specification:'Public Sans Italic'"
         id="path4827"
         inkscape:connector-curvature="0" />
      <path
         d="m 263.10023,429.22298 c 3.82,0 7.62,-2.1 9.14,-6.44 h -3.38 c -1.08,2.36 -2.94,3.58 -5.42,3.58 -3.76,0 -5.2,-3.1 -4.64,-7.02 h 14.02 l 0.2,-1.36 c 0.86,-6.28 -1.66,-10.24 -7.22,-10.24 -5.74,0 -9.66,4.42 -10.54,10.94 -0.9,6.6 2.32,10.54 7.84,10.54 z m -3.94,-12.38 c 0.38,-3.08 2.58,-6.3 6.2,-6.3 3.54,0 4.84,2.74 4.36,6.3 z"
         style="font-style:italic;font-variant:normal;font-weight:normal;font-stretch:normal;font-family:'Public Sans';-inkscape-font-specification:'Public Sans Italic'"
         id="path4829"
         inkscape:connector-curvature="0" />
      <path
         d="m 281.65711,429.08298 c 0.48,0 1.2,-0.12 1.86,-0.32 l 0.34,-2.4 -1.04,-0.02 c -1.4,-0.1 -2.06,-1.1 -1.76,-3.2 l 3.48,-24.04 h -3.56 l -3.54,24.4 c -0.4,2.9 -0.04,5.58 4.22,5.58 z"
         style="letter-spacing:1px"
         id="path4831"
         inkscape:connector-curvature="0" />
      <path
         d="m 301.46336,433.22298 c 3.58,0 6.78,-1.24 9.22,-3.02 l -1.04,-1.86 c -2.14,1.38 -3.92,2.52 -7.3,2.52 -7.88,0 -11.42,-5.24 -10.42,-12.2 1.02,-7.14 6.16,-13.18 14.1,-13.18 5.08,0 10.1,2.8 8.98,10.32 -0.64,4.64 -3.1,7.36 -5.36,7.36 -1.22,0 -1.64,-0.72 -0.98,-2.98 l 2.66,-8.88 h -2.38 l -0.48,1.26 c -0.08,0.24 -0.24,0.24 -0.28,0.14 -0.64,-1.42 -1.82,-2.4 -3.88,-2.4 -4.24,0 -7.76,4.1 -8.46,9.02 -0.64,4.18 1.4,6.9 4.24,6.9 2.38,0 4.16,-1.14 5.48,-2.64 0.28,-0.28 0.34,-0.3 0.44,0.04 0.2,1.32 1.1,2.04 3.06,2.04 4.1,0 7.76,-4.12 8.62,-10.1 1.26,-8.76 -4.82,-12.5 -11.26,-12.5 -8.96,0 -15.92,7.16 -17.14,15.58 -1.14,8.02 3.22,14.58 12.18,14.58 z m -0.36,-9.62 c -1.9,0 -2.72,-1.8 -2.32,-4.5 0.5,-3.42 2.72,-6.18 5.34,-6.18 1.92,0 3.36,1.82 2.44,5.3 -0.74,2.88 -3.12,5.38 -5.46,5.38 z"
         style="letter-spacing:1px"
         id="path4833"
         inkscape:connector-curvature="0" />
      <path
         d="m 329.24211,435.66298 c 6.48,0 9.92,-2.54 10.42,-6.24 0.46,-3.38 -1.64,-5.46 -5.82,-5.72 -1.72,-0.14 -3.2,-0.2 -4.22,-0.28 -2.5,-0.2 -3.48,-0.48 -3.46,-1.28 0.06,-0.66 1.02,-1.24 3.74,-1.28 0.26,0.02 0.84,0.04 1.2,0.04 5.46,0 8.5,-2.8 9,-6.4 0.1,-0.94 0,-2.02 -0.3,-2.88 l 3.58,-0.76 0.42,-3.46 c -1.16,0.46 -4.44,1.82 -5.42,2.22 -1.28,-1.12 -2.8,-1.8 -5.42,-1.8 -5.5,0 -8.82,2.56 -9.34,6.4 -0.32,2.44 0.78,4.64 2.9,5.84 -2.46,0.58 -3.72,1.68 -3.88,2.9 -0.24,1.68 1.1,2.3 1.66,2.7 -0.58,0.4 -3.9,1.52 -4.3,4.4 -0.48,3.58 2.96,5.6 9.24,5.6 z m 2.06,-17.14 c -2.96,0 -4.44,-1.42 -4.1,-3.96 0.38,-2.86 2.56,-4.46 5.46,-4.46 2.74,0 4.34,1.44 4,4.16 -0.38,2.78 -2.5,4.26 -5.36,4.26 z m -1.36,14.76 c -4.64,0 -6.6,-1.26 -6.34,-3.4 0.28,-1.98 2.46,-3.48 3.96,-3.38 l 5.42,0.36 c 2.36,0.16 3.32,1.26 3.12,2.82 -0.3,2.38 -2.48,3.6 -6.16,3.6 z"
         style="font-style:italic;font-variant:normal;font-weight:normal;font-stretch:normal;font-family:'Public Sans';-inkscape-font-specification:'Public Sans Italic'"
         id="path4835"
         inkscape:connector-curvature="0" />
      <path
         d="m 345.57211,428.82298 h 3.6 l 2.06,-14.14 c 0.4,-2.86 2.94,-4.04 4.92,-4.04 1.78,0 3.72,1.22 3.38,3.62 l -2.08,14.56 h 3.56 l 1.98,-13.72 c 0.48,-3.34 2.82,-4.46 5.04,-4.46 2.02,0 3.76,1 3.24,4.7 l -1.94,13.48 h 3.6 l 1.98,-13.8 c 0.86,-5.78 -2.52,-7.28 -5.3,-7.28 -2.42,0 -4.88,1.22 -6.46,3.24 -0.66,-2.2 -3.02,-3.24 -5.14,-3.24 -3.04,0 -5.06,1.5 -6.38,3.28 l 0.4,-2.88 h -3.46 z"
         style="font-style:italic;font-variant:normal;font-weight:normal;font-stretch:normal;font-family:'Public Sans';-inkscape-font-specification:'Public Sans Italic'"
         id="path4837"
         inkscape:connector-curvature="0" />
      <path
         d="m 384.09523,429.22298 c 2.78,0 5.28,-0.94 7.26,-4.16 l -0.24,3.76 h 3.06 l 2.08,-14.44 c 0.58,-4.06 -1.66,-6.64 -6.74,-6.64 -4.74,0 -8.16,2.64 -8.9,6.24 h 3.18 c 0.8,-2.34 2.98,-3.5 5.14,-3.52 2.66,0 4.18,1.48 3.82,4.12 l -0.24,1.62 -3.44,0.1 c -6.74,0.16 -9.94,2.34 -10.58,6.92 -0.52,3.78 1.78,6 5.6,6 z m 1.46,-2.66 c -2.36,0 -3.82,-1.36 -3.52,-3.7 0.46,-3.06 2.88,-4.24 7.3,-4.32 l 2.84,-0.06 -0.52,3.54 c -0.34,2.3 -3.5,4.54 -6.1,4.54 z"
         style="font-style:italic;font-variant:normal;font-weight:normal;font-stretch:normal;font-family:'Public Sans';-inkscape-font-specification:'Public Sans Italic'"
         id="path4839"
         inkscape:connector-curvature="0" />
      <path
         d="m 404.64836,403.88298 h 3.82 l 0.58,-3.84 h -3.82 z m -3.46,24.94 h 3.62 l 2.94,-20.68 h -3.58 z"
         style="font-style:italic;font-variant:normal;font-weight:normal;font-stretch:normal;font-family:'Public Sans';-inkscape-font-specification:'Public Sans Italic'"
         id="path4841"
         inkscape:connector-curvature="0" />
      <path
         d="m 416.78211,429.08298 c 0.48,0 1.2,-0.12 1.86,-0.32 l 0.34,-2.4 -1.04,-0.02 c -1.4,-0.1 -2.06,-1.1 -1.76,-3.2 l 3.48,-24.04 h -3.56 l -3.54,24.4 c -0.4,2.9 -0.04,5.58 4.22,5.58 z"
         style="font-style:italic;font-variant:normal;font-weight:normal;font-stretch:normal;font-family:'Public Sans';-inkscape-font-specification:'Public Sans Italic'"
         id="path4843"
         inkscape:connector-curvature="0" />
      <path
         d="m 422.85523,428.82298 h 4.26 l 0.7,-4.72 h -4.26 z"
         style="font-style:italic;font-variant:normal;font-weight:normal;font-stretch:normal;font-family:'Public Sans';-inkscape-font-specification:'Public Sans Italic'"
         id="path4845"
         inkscape:connector-curvature="0" />
      <path
         d="m 440.44148,429.22298 c 4.66,0 7.94,-2.92 8.82,-6.78 h -3.14 c -0.6,2.1 -2.58,3.96 -5.1,3.96 -3.8,0 -5.36,-3.1 -4.72,-7.9 0.72,-5.26 3.36,-7.78 6.8,-7.78 2.66,0 4,1.82 4.04,4 l 3.2,-0.06 c 0.06,-4.22 -2.48,-6.92 -6.96,-6.92 -5.78,0 -9.64,4.38 -10.52,10.84 -0.96,6.92 2.26,10.64 7.58,10.64 z"
         style="font-style:italic;font-variant:normal;font-weight:normal;font-stretch:normal;font-family:'Public Sans';-inkscape-font-specification:'Public Sans Italic'"
         id="path4847"
         inkscape:connector-curvature="0" />
      <path
         d="m 461.35898,429.22298 c 5.86,0 9.56,-4.34 10.44,-10.66 0.94,-6.96 -2.04,-10.82 -7.46,-10.82 -5.82,0 -9.64,4.34 -10.54,10.82 -0.94,6.9 2.1,10.66 7.56,10.66 z m 0.44,-2.92 c -3.9,0 -4.98,-3.46 -4.4,-7.82 0.64,-4.92 2.96,-7.84 6.52,-7.84 3.8,0 4.92,3.42 4.32,7.84 -0.64,4.86 -2.96,7.82 -6.44,7.82 z"
         style="font-style:italic;font-variant:normal;font-weight:normal;font-stretch:normal;font-family:'Public Sans';-inkscape-font-specification:'Public Sans Italic'"
         id="path4849"
         inkscape:connector-curvature="0" />
      <path
         d="m 475.33773,428.82298 h 3.6 l 2.06,-14.14 c 0.4,-2.86 2.94,-4.04 4.92,-4.04 1.78,0 3.72,1.22 3.38,3.62 l -2.08,14.56 h 3.56 l 1.98,-13.72 c 0.48,-3.34 2.82,-4.46 5.04,-4.46 2.02,0 3.76,1 3.24,4.7 l -1.94,13.48 h 3.6 l 1.98,-13.8 c 0.86,-5.78 -2.52,-7.28 -5.3,-7.28 -2.42,0 -4.88,1.22 -6.46,3.24 -0.66,-2.2 -3.02,-3.24 -5.14,-3.24 -3.04,0 -5.06,1.5 -6.38,3.28 l 0.4,-2.88 h -3.46 z"
         style="font-style:italic;font-variant:normal;font-weight:normal;font-stretch:normal;font-family:'Public Sans';-inkscape-font-specification:'Public Sans Italic'"
         id="path4851"
         inkscape:connector-curvature="0" />
    </g>
  </g>
</svg>
