<?xml version="1.0" encoding="UTF-8" standalone="no"?>
<svg
   xmlns:dc="http://purl.org/dc/elements/1.1/"
   xmlns:cc="http://creativecommons.org/ns#"
   xmlns:rdf="http://www.w3.org/1999/02/22-rdf-syntax-ns#"
   xmlns:svg="http://www.w3.org/2000/svg"
   xmlns="http://www.w3.org/2000/svg"
   id="svg8"
   version="1.1"
   viewBox="0 0 29.011999 7.9159999"
   height="7.9159999mm"
   width="29.011999mm">
  <defs
     id="defs2" />
  <metadata
     id="metadata5">
    <rdf:RDF>
      <cc:Work
         rdf:about="">
        <dc:format>image/svg+xml</dc:format>
        <dc:type
           rdf:resource="http://purl.org/dc/dcmitype/StillImage" />
        <dc:title></dc:title>
      </cc:Work>
    </rdf:RDF>
  </metadata>
  <g
     transform="translate(0,-289.084)"
     id="layer1">
    <g
       transform="translate(-37.21539,154.26142)"
       id="g4784">
      <path
         id="path4755"
         style="font-style:normal;font-variant:normal;font-weight:normal;font-stretch:normal;font-size:40px;line-height:1.25;font-family:'Druk Wide';-inkscape-font-specification:'Druk Wide';letter-spacing:0px;word-spacing:0px;fill:#000000;fill-opacity:1;stroke:none;stroke-width:0.26458332"
         d="m 39.575443,137.73284 c 0,-0.74083 0.433917,-1.37583 1.227667,-1.37583 h 0.01058 c 0.889,0 1.2065,0.62442 1.2065,1.36525 h 2.275417 v -0.32808 c 0,-1.4605 -0.66675,-2.54 -2.31775,-2.54 H 41.86144 c -1.42875,0 -2.0955,0.81491 -2.307166,1.13241 v -1.00541 H 37.21536 v 5.69383 h 2.360083 z" />
      <path
         id="path4757"
         style="font-style:normal;font-variant:normal;font-weight:normal;font-stretch:normal;font-size:40px;line-height:1.25;font-family:'Druk Wide';-inkscape-font-specification:'Druk Wide';letter-spacing:0px;word-spacing:0px;fill:#000000;fill-opacity:1;stroke:none;stroke-width:0.26458332"
         d="m 49.274603,136.32526 c 1.481667,0 2.148417,0.61383 2.148417,1.29117 v 0.0423 c 0,0.65617 -0.645583,1.31233 -2.148417,1.31233 h -0.0635 c -1.449916,0 -1.947333,-0.67733 -1.947333,-1.32291 v -0.0529 c 0,-0.635 0.41275,-1.27 1.947333,-1.27 z m 0.560917,6.4135 c 3.4925,0 4.0005,-2.06375 4.0005,-3.10092 v -4.65666 h -2.370667 v 0.762 c -0.306916,-0.28575 -1.0795,-0.89959 -2.963333,-0.89959 h -0.22225 c -2.529417,0 -3.418417,1.27 -3.418417,2.64584 v 0.21166 c 0,1.4605 1.037167,2.71992 3.71475,2.71992 h 0.127 c 1.788584,0 2.497667,-0.60325 2.772834,-0.85725 0,0.73025 -0.275167,1.64042 -2.032,1.64042 h -0.03175 c -1.61925,0 -1.799167,-0.381 -1.820334,-0.52917 h -2.38125 v 0.0318 c 0,0.45508 0.296334,2.032 3.8735,2.032 z" />
      <path
         id="path4759"
         style="font-style:normal;font-variant:normal;font-weight:normal;font-stretch:normal;font-size:40px;line-height:1.25;font-family:'Druk Wide';-inkscape-font-specification:'Druk Wide';letter-spacing:0px;word-spacing:0px;fill:#000000;fill-opacity:1;stroke:none;stroke-width:0.26458332"
         d="m 54.462722,136.62159 v 1.82034 h 3.39725 v -1.82034 z" />
      <path
         id="path4761"
         style="font-style:normal;font-variant:normal;font-weight:normal;font-stretch:normal;font-size:40px;line-height:1.25;font-family:'Druk Wide';-inkscape-font-specification:'Druk Wide';letter-spacing:0px;word-spacing:0px;fill:#000000;fill-opacity:1;stroke:none;stroke-width:0.26458332"
         d="m 62.036419,140.83376 h 0.433917 c 3.14325,0 3.757083,-0.91017 3.757083,-1.95792 v -0.0635 c 0,-1.13241 -0.53975,-1.73566 -3.175,-1.78858 l -1.016,-0.0212 c -0.994833,-0.0212 -1.195916,-0.20108 -1.195916,-0.45508 v -0.0212 c 0,-0.27516 0.22225,-0.42333 1.354666,-0.42333 h 0.01058 c 1.259416,0 1.386416,0.37042 1.407583,0.58208 h 2.402417 v -0.0741 c 0,-0.889 -0.677334,-1.78858 -3.566584,-1.78858 h -0.423333 c -3.122083,0 -3.598333,0.91016 -3.598333,1.778 v 0.0635 c 0,0.83608 0.592667,1.7145 3.069166,1.778 l 1.016,0.0212 c 1.11125,0.0212 1.248834,0.21167 1.248834,0.49742 v 0.0212 c 0,0.27516 -0.15875,0.53975 -1.471084,0.53975 h -0.02117 c -1.386417,0 -1.449917,-0.5715 -1.4605,-0.77259 h -2.434167 v 0.0635 c 0,0.73025 0.338667,2.02142 3.661833,2.02142 z" />
    </g>
  </g>
</svg>
